<svg version="1.1" id="Layer_1" xmlns="http://www.w3.org/2000/svg" xmlns:xlink="http://www.w3.org/1999/xlink" x="0px" y="0px"
	 width="100%" viewBox="0 0 228 227" enable-background="new 0 0 228 227" xml:space="preserve">
<path fill="#242021" opacity="1.000000" stroke="none" 
	d="
M128.000000,228.000000 
	C85.333336,228.000000 43.166672,228.000000 1.000006,228.000000 
	C1.000004,152.333344 1.000004,76.666679 1.000002,1.000016 
	C76.999992,1.000010 152.999985,1.000010 228.999969,1.000005 
	C228.999985,76.666649 228.999985,152.333298 229.000000,227.999969 
	C195.500000,228.000000 162.000000,228.000000 128.000000,228.000000 
M94.340729,16.849350 
	C44.788067,26.284048 9.390326,77.864685 16.486362,127.902580 
	C22.537086,170.569443 57.375149,211.666656 110.800087,214.712799 
	C151.651031,217.041992 190.938263,193.954803 208.073196,154.041107 
	C211.802628,145.353867 214.469254,136.394745 215.170547,126.870941 
	C182.831635,126.870941 150.960297,126.870941 119.166321,126.870941 
	C119.166321,134.044968 119.166321,140.789154 119.166321,147.956726 
	C125.236710,147.956726 130.977188,147.956726 136.766266,147.956726 
	C136.766266,155.323563 136.766266,162.255493 136.766266,169.509430 
	C124.466255,169.509430 112.403564,169.509430 100.484619,169.509430 
	C100.484619,132.772263 100.484619,96.404915 100.484619,60.039417 
	C106.732300,60.039417 112.515686,60.039417 118.858719,60.039417 
	C118.858719,75.458717 118.858719,90.675247 118.858719,105.867004 
	C151.505661,105.867004 183.589111,105.867004 215.702972,105.867004 
	C209.359238,44.955723 154.178146,4.229498 94.340729,16.849350 
z"/>
<path fill="#FEFDFD" opacity="1.000000" stroke="none" 
	d="
M94.749321,16.730671 
	C154.178146,4.229498 209.359238,44.955723 215.702972,105.867004 
	C183.589111,105.867004 151.505661,105.867004 118.858719,105.867004 
	C118.858719,90.675247 118.858719,75.458717 118.858719,60.039417 
	C112.515686,60.039417 106.732300,60.039417 100.484619,60.039417 
	C100.484619,96.404915 100.484619,132.772263 100.484619,169.509430 
	C112.403564,169.509430 124.466255,169.509430 136.766266,169.509430 
	C136.766266,162.255493 136.766266,155.323563 136.766266,147.956726 
	C130.977188,147.956726 125.236710,147.956726 119.166321,147.956726 
	C119.166321,140.789154 119.166321,134.044968 119.166321,126.870941 
	C150.960297,126.870941 182.831635,126.870941 215.170547,126.870941 
	C214.469254,136.394745 211.802628,145.353867 208.073196,154.041107 
	C190.938263,193.954803 151.651031,217.041992 110.800087,214.712799 
	C57.375149,211.666656 22.537086,170.569443 16.486362,127.902580 
	C9.390326,77.864685 44.788067,26.284048 94.749321,16.730671 
z"/>
</svg>